<svg id="Capa_1" enable-background="new 0 0 512 512" height="512" viewBox="0 0 512 512" width="512" xmlns="http://www.w3.org/2000/svg"><g><g><g><g><g><g><g><g><g><g><g><circle cx="256" cy="256" fill="#96ebe6" r="256"/></g></g></g></g></g></g></g></g></g></g><path d="m175.389 128.52 32.849 32.849 5.539 206.643-125.963 37.067 96.831 96.831c22.651 6.561 46.59 10.09 71.355 10.09 141.385 0 256-114.615 256-256 0-31.57-5.729-61.798-16.18-89.721l-88.184-88.184z" fill="#00c8c8"/><g><g><path d="m291.512 196.997h-89.607v-86.061h89.607l16.062 41.378z" fill="#5f69e2"/><path d="m291.512 110.936h89.608v86.061h-89.608z" fill="#515bdf"/></g><g><path d="m291.512 418.256h-116.123v-267.253h116.123l58.062 128.494z" fill="#7c83e7"/><path d="m291.512 151.003h116.124v267.253h-116.124z" fill="#5f69e2"/></g><g><path d="m291.512 128.52h-116.123v-50.424h116.123l20.814 24.244z" fill="#ff8fb8"/><path d="m291.512 78.096h116.124v50.425h-116.124z" fill="#ff5f96"/></g><g><path d="m291.512 367.877h-101.697v-166.496h101.697l49.104 80.051z" fill="#ebf3ff"/><path d="m291.512 201.381h101.698v166.496h-101.698z" fill="#d7e8ff"/></g><g><path d="m291.512 323.632h-8.892v-76.47h8.892l1.594 36.766z" fill="#5f69e2"/><path d="m291.512 247.162h8.893v76.469h-8.893z" fill="#515bdf"/></g><g><g><path d="m243.781 323.632h-15.35l-24.942-72.197 16.81-5.808 15.626 45.23 14.963-45.055 16.878 5.605z" fill="#5f69e2"/></g></g><path d="m374.671 247.162h-50.193v17.785h16.138v58.684h17.785v-58.684h16.27z" fill="#515bdf"/><g><path d="m120.268 417.991c-26.057 0-47.18-21.123-47.18-47.18s21.123-47.18 47.18-47.18h43.531l10.92 47.18-10.92 47.18z" fill="#ebf3ff"/><path d="m207.33 323.632c26.057 0 47.18 21.123 47.18 47.18s-21.123 47.18-47.18 47.18h-43.531v-94.359h43.531z" fill="#d72878"/></g></g></g></svg>